<svg width="100%" viewBox="0 0 699 101" xmlns="http://www.w3.org/2000/svg">
  <g>
    <rect x="6" y="6" width="11" height="11" fill="#161b22" rx="2" />
    <rect x="6" y="19" width="11" height="11" fill="#161b22" rx="2" />
    <rect x="6" y="32" width="11" height="11" fill="#161b22" rx="2" />
    <rect x="6" y="45" width="11" height="11" fill="#161b22" rx="2" />
    <rect x="6" y="58" width="11" height="11" fill="#161b22" rx="2" />
    <rect x="6" y="71" width="11" height="11" fill="#161b22" rx="2" />
    <rect x="6" y="84" width="11" height="11" fill="#161b22" rx="2" />
    <rect x="19" y="6" width="11" height="11" fill="#161b22" rx="2" />
    <rect x="19" y="19" width="11" height="11" fill="#161b22" rx="2" />
    <rect x="19" y="32" width="11" height="11" fill="#161b22" rx="2" />
    <rect x="19" y="45" width="11" height="11" fill="#161b22" rx="2" />
    <rect x="19" y="58" width="11" height="11" fill="#161b22" rx="2" />
    <rect x="19" y="71" width="11" height="11" fill="#161b22" rx="2" />
    <rect x="19" y="84" width="11" height="11" fill="#161b22" rx="2" />
    <rect x="32" y="6" width="11" height="11" fill="#161b22" rx="2" />
    <rect x="32" y="19" width="11" height="11" fill="#161b22" rx="2" />
    <rect x="32" y="32" width="11" height="11" fill="#161b22" rx="2" />
    <rect x="32" y="45" width="11" height="11" fill="#161b22" rx="2" />
    <rect x="32" y="58" width="11" height="11" fill="#161b22" rx="2" />
    <rect x="32" y="71" width="11" height="11" fill="#161b22" rx="2" />
    <rect x="32" y="84" width="11" height="11" fill="#161b22" rx="2" />
    <rect x="45" y="6" width="11" height="11" fill="#161b22" rx="2" />
    <rect x="45" y="19" width="11" height="11" fill="#161b22" rx="2" />
    <rect x="45" y="32" width="11" height="11" fill="#161b22" rx="2" />
    <rect x="45" y="45" width="11" height="11" fill="#161b22" rx="2" />
    <rect x="45" y="58" width="11" height="11" fill="#161b22" rx="2" />
    <rect x="45" y="71" width="11" height="11" fill="#161b22" rx="2" />
    <rect x="45" y="84" width="11" height="11" fill="#161b22" rx="2" />
    <rect x="58" y="6" width="11" height="11" fill="#161b22" rx="2" />
    <rect x="58" y="19" width="11" height="11" fill="#161b22" rx="2" />
    <rect x="58" y="32" width="11" height="11" fill="#161b22" rx="2" />
    <rect x="58" y="45" width="11" height="11" fill="#161b22" rx="2" />
    <rect x="58" y="58" width="11" height="11" fill="#161b22" rx="2" />
    <rect x="58" y="71" width="11" height="11" fill="#161b22" rx="2" />
    <rect x="58" y="84" width="11" height="11" fill="#161b22" rx="2" />
    <rect x="71" y="6" width="11" height="11" fill="#161b22" rx="2" />
    <rect x="71" y="19" width="11" height="11" fill="#161b22" rx="2" />
    <rect x="71" y="32" width="11" height="11" fill="#161b22" rx="2" />
    <rect x="71" y="45" width="11" height="11" fill="#161b22" rx="2" />
    <rect x="71" y="58" width="11" height="11" fill="#161b22" rx="2" />
    <rect x="71" y="71" width="11" height="11" fill="#161b22" rx="2" />
    <rect x="71" y="84" width="11" height="11" fill="#161b22" rx="2" />
    <rect x="84" y="6" width="11" height="11" fill="#161b22" rx="2" />
    <rect x="84" y="19" width="11" height="11" fill="#161b22" rx="2" />
    <rect x="84" y="32" width="11" height="11" fill="#161b22" rx="2" />
    <rect x="84" y="45" width="11" height="11" fill="#161b22" rx="2" />
    <rect x="84" y="58" width="11" height="11" fill="#161b22" rx="2" />
    <rect x="84" y="71" width="11" height="11" fill="#161b22" rx="2" />
    <rect x="84" y="84" width="11" height="11" fill="#161b22" rx="2" />
    <rect x="97" y="6" width="11" height="11" fill="#161b22" rx="2" />
    <rect x="97" y="19" width="11" height="11" fill="#161b22" rx="2" />
    <rect x="97" y="32" width="11" height="11" fill="#161b22" rx="2" />
    <rect x="97" y="45" width="11" height="11" fill="#161b22" rx="2" />
    <rect x="97" y="58" width="11" height="11" fill="#161b22" rx="2" />
    <rect x="97" y="71" width="11" height="11" fill="#161b22" rx="2" />
    <rect x="97" y="84" width="11" height="11" fill="#161b22" rx="2" />
    <rect x="110" y="6" width="11" height="11" fill="#161b22" rx="2" />
    <rect x="110" y="19" width="11" height="11" fill="#161b22" rx="2" />
    <rect x="110" y="32" width="11" height="11" fill="#161b22" rx="2" />
    <rect x="110" y="45" width="11" height="11" fill="#161b22" rx="2" />
    <rect x="110" y="58" width="11" height="11" fill="#161b22" rx="2" />
    <rect x="110" y="71" width="11" height="11" fill="#161b22" rx="2" />
    <rect x="110" y="84" width="11" height="11" fill="#161b22" rx="2" />
    <rect x="123" y="6" width="11" height="11" fill="#161b22" rx="2" />
    <rect x="123" y="19" width="11" height="11" fill="#161b22" rx="2" />
    <rect x="123" y="32" width="11" height="11" fill="#161b22" rx="2" />
    <rect x="123" y="45" width="11" height="11" fill="#161b22" rx="2" />
    <rect x="123" y="58" width="11" height="11" fill="#161b22" rx="2" />
    <rect x="123" y="71" width="11" height="11" fill="#161b22" rx="2" />
    <rect x="123" y="84" width="11" height="11" fill="#161b22" rx="2" />
    <rect x="136" y="6" width="11" height="11" fill="#161b22" rx="2" />
    <rect x="136" y="19" width="11" height="11" fill="#161b22" rx="2" />
    <rect x="136" y="32" width="11" height="11" fill="#161b22" rx="2" />
    <rect x="136" y="45" width="11" height="11" fill="#161b22" rx="2" />
    <rect x="136" y="58" width="11" height="11" fill="#161b22" rx="2" />
    <rect x="136" y="71" width="11" height="11" fill="#161b22" rx="2" />
    <rect x="136" y="84" width="11" height="11" fill="#161b22" rx="2" />
    <rect x="149" y="6" width="11" height="11" fill="#161b22" rx="2" />
    <rect x="149" y="19" width="11" height="11" fill="#161b22" rx="2" />
    <rect x="149" y="32" width="11" height="11" fill="#161b22" rx="2" />
    <rect x="149" y="45" width="11" height="11" fill="#161b22" rx="2" />
    <rect x="149" y="58" width="11" height="11" fill="#161b22" rx="2" />
    <rect x="149" y="71" width="11" height="11" fill="#161b22" rx="2" />
    <rect x="149" y="84" width="11" height="11" fill="#161b22" rx="2" />
    <rect x="162" y="6" width="11" height="11" fill="#161b22" rx="2" />
    <rect x="162" y="19" width="11" height="11" fill="#161b22" rx="2" />
    <rect x="162" y="32" width="11" height="11" fill="#161b22" rx="2" />
    <rect x="162" y="45" width="11" height="11" fill="#161b22" rx="2" />
    <rect x="162" y="58" width="11" height="11" fill="#161b22" rx="2" />
    <rect x="162" y="71" width="11" height="11" fill="#161b22" rx="2" />
    <rect x="162" y="84" width="11" height="11" fill="#161b22" rx="2" />
    <rect x="175" y="6" width="11" height="11" fill="#161b22" rx="2" />
    <rect x="175" y="19" width="11" height="11" fill="#161b22" rx="2" />
    <rect x="175" y="32" width="11" height="11" fill="#161b22" rx="2" />
    <rect x="175" y="45" width="11" height="11" fill="#161b22" rx="2" />
    <rect x="175" y="58" width="11" height="11" fill="#161b22" rx="2" />
    <rect x="175" y="71" width="11" height="11" fill="#161b22" rx="2" />
    <rect x="175" y="84" width="11" height="11" fill="#161b22" rx="2" />
    <rect x="188" y="6" width="11" height="11" fill="#161b22" rx="2" />
    <rect x="188" y="19" width="11" height="11" fill="#161b22" rx="2" />
    <rect x="188" y="32" width="11" height="11" fill="#161b22" rx="2" />
    <rect x="188" y="45" width="11" height="11" fill="#161b22" rx="2" />
    <rect x="188" y="58" width="11" height="11" fill="#161b22" rx="2" />
    <rect x="188" y="71" width="11" height="11" fill="#161b22" rx="2" />
    <rect x="188" y="84" width="11" height="11" fill="#161b22" rx="2" />
    <rect x="201" y="6" width="11" height="11" fill="#161b22" rx="2" />
    <rect x="201" y="19" width="11" height="11" fill="#161b22" rx="2" />
    <rect x="201" y="32" width="11" height="11" fill="#161b22" rx="2" />
    <rect x="201" y="45" width="11" height="11" fill="#161b22" rx="2" />
    <rect x="201" y="58" width="11" height="11" fill="#161b22" rx="2" />
    <rect x="201" y="71" width="11" height="11" fill="#161b22" rx="2" />
    <rect x="201" y="84" width="11" height="11" fill="#161b22" rx="2" />
    <rect x="214" y="6" width="11" height="11" fill="#161b22" rx="2" />
    <rect x="214" y="19" width="11" height="11" fill="#161b22" rx="2" />
    <rect x="214" y="32" width="11" height="11" fill="#161b22" rx="2" />
    <rect x="214" y="45" width="11" height="11" fill="#161b22" rx="2" />
    <rect x="214" y="58" width="11" height="11" fill="#161b22" rx="2" />
    <rect x="214" y="71" width="11" height="11" fill="#161b22" rx="2" />
    <rect x="214" y="84" width="11" height="11" fill="#161b22" rx="2" />
    <rect x="227" y="6" width="11" height="11" fill="#161b22" rx="2" />
    <rect x="227" y="19" width="11" height="11" fill="#161b22" rx="2" />
    <rect x="227" y="32" width="11" height="11" fill="#161b22" rx="2" />
    <rect x="227" y="45" width="11" height="11" fill="#161b22" rx="2" />
    <rect x="227" y="58" width="11" height="11" fill="#161b22" rx="2" />
    <rect x="227" y="71" width="11" height="11" fill="#161b22" rx="2" />
    <rect x="227" y="84" width="11" height="11" fill="#161b22" rx="2" />
    <rect x="240" y="6" width="11" height="11" fill="#161b22" rx="2" />
    <rect x="240" y="19" width="11" height="11" fill="#161b22" rx="2" />
    <rect x="240" y="32" width="11" height="11" fill="#161b22" rx="2" />
    <rect x="240" y="45" width="11" height="11" fill="#161b22" rx="2" />
    <rect x="240" y="58" width="11" height="11" fill="#161b22" rx="2" />
    <rect x="240" y="71" width="11" height="11" fill="#161b22" rx="2" />
    <rect x="240" y="84" width="11" height="11" fill="#161b22" rx="2" />
    <rect x="253" y="6" width="11" height="11" fill="#161b22" rx="2" />
    <rect x="253" y="19" width="11" height="11" fill="#161b22" rx="2" />
    <rect x="253" y="32" width="11" height="11" fill="#161b22" rx="2" />
    <rect x="253" y="45" width="11" height="11" fill="#161b22" rx="2" />
    <rect x="253" y="58" width="11" height="11" fill="#161b22" rx="2" />
    <rect x="253" y="71" width="11" height="11" fill="#161b22" rx="2" />
    <rect x="253" y="84" width="11" height="11" fill="#161b22" rx="2" />
    <rect x="266" y="6" width="11" height="11" fill="#161b22" rx="2" />
    <rect x="266" y="19" width="11" height="11" fill="#161b22" rx="2" />
    <rect x="266" y="32" width="11" height="11" fill="#161b22" rx="2" />
    <rect x="266" y="45" width="11" height="11" fill="#161b22" rx="2" />
    <rect x="266" y="58" width="11" height="11" fill="#161b22" rx="2" />
    <rect x="266" y="71" width="11" height="11" fill="#161b22" rx="2" />
    <rect x="266" y="84" width="11" height="11" fill="#161b22" rx="2" />
    <rect x="279" y="6" width="11" height="11" fill="#161b22" rx="2" />
    <rect x="279" y="19" width="11" height="11" fill="#161b22" rx="2" />
    <rect x="279" y="32" width="11" height="11" fill="#161b22" rx="2" />
    <rect x="279" y="45" width="11" height="11" fill="#161b22" rx="2" />
    <rect x="279" y="58" width="11" height="11" fill="#161b22" rx="2" />
    <rect x="279" y="71" width="11" height="11" fill="#161b22" rx="2" />
    <rect x="279" y="84" width="11" height="11" fill="#161b22" rx="2" />
    <rect x="292" y="6" width="11" height="11" fill="#161b22" rx="2" />
    <rect x="292" y="19" width="11" height="11" fill="#161b22" rx="2" />
    <rect x="292" y="32" width="11" height="11" fill="#161b22" rx="2" />
    <rect x="292" y="45" width="11" height="11" fill="#161b22" rx="2" />
    <rect x="292" y="58" width="11" height="11" fill="#161b22" rx="2" />
    <rect x="292" y="71" width="11" height="11" fill="#161b22" rx="2" />
    <rect x="292" y="84" width="11" height="11" fill="#161b22" rx="2" />
    <rect x="305" y="6" width="11" height="11" fill="#161b22" rx="2" />
    <rect x="305" y="19" width="11" height="11" fill="#161b22" rx="2" />
    <rect x="305" y="32" width="11" height="11" fill="#161b22" rx="2" />
    <rect x="305" y="45" width="11" height="11" fill="#161b22" rx="2" />
    <rect x="305" y="58" width="11" height="11" fill="#161b22" rx="2" />
    <rect x="305" y="71" width="11" height="11" fill="#161b22" rx="2" />
    <rect x="305" y="84" width="11" height="11" fill="#161b22" rx="2" />
    <rect x="318" y="6" width="11" height="11" fill="#161b22" rx="2" />
    <rect x="318" y="19" width="11" height="11" fill="#161b22" rx="2" />
    <rect x="318" y="32" width="11" height="11" fill="#161b22" rx="2" />
    <rect x="318" y="45" width="11" height="11" fill="#161b22" rx="2" />
    <rect x="318" y="58" width="11" height="11" fill="#161b22" rx="2" />
    <rect x="318" y="71" width="11" height="11" fill="#161b22" rx="2" />
    <rect x="318" y="84" width="11" height="11" fill="#161b22" rx="2" />
    <rect x="331" y="6" width="11" height="11" fill="#161b22" rx="2" />
    <rect x="331" y="19" width="11" height="11" fill="#161b22" rx="2" />
    <rect x="331" y="32" width="11" height="11" fill="#161b22" rx="2" />
    <rect x="331" y="45" width="11" height="11" fill="#161b22" rx="2" />
    <rect x="331" y="58" width="11" height="11" fill="#161b22" rx="2" />
    <rect x="331" y="71" width="11" height="11" fill="#161b22" rx="2" />
    <rect x="331" y="84" width="11" height="11" fill="#161b22" rx="2" />
    <rect x="344" y="6" width="11" height="11" fill="#161b22" rx="2" />
    <rect x="344" y="19" width="11" height="11" fill="#161b22" rx="2" />
    <rect x="344" y="32" width="11" height="11" fill="#161b22" rx="2" />
    <rect x="344" y="45" width="11" height="11" fill="#161b22" rx="2" />
    <rect x="344" y="58" width="11" height="11" fill="#161b22" rx="2" />
    <rect x="344" y="71" width="11" height="11" fill="#161b22" rx="2" />
    <rect x="344" y="84" width="11" height="11" fill="#161b22" rx="2" />
    <rect x="357" y="6" width="11" height="11" fill="#161b22" rx="2" />
    <rect x="357" y="19" width="11" height="11" fill="#161b22" rx="2" />
    <rect x="357" y="32" width="11" height="11" fill="#161b22" rx="2" />
    <rect x="357" y="45" width="11" height="11" fill="#161b22" rx="2" />
    <rect x="357" y="58" width="11" height="11" fill="#161b22" rx="2" />
    <rect x="357" y="71" width="11" height="11" fill="#161b22" rx="2" />
    <rect x="357" y="84" width="11" height="11" fill="#161b22" rx="2" />
    <rect x="370" y="6" width="11" height="11" fill="#161b22" rx="2" />
    <rect x="370" y="19" width="11" height="11" fill="#161b22" rx="2" />
    <rect x="370" y="32" width="11" height="11" fill="#161b22" rx="2" />
    <rect x="370" y="45" width="11" height="11" fill="#161b22" rx="2" />
    <rect x="370" y="58" width="11" height="11" fill="#161b22" rx="2" />
    <rect x="370" y="71" width="11" height="11" fill="#161b22" rx="2" />
    <rect x="370" y="84" width="11" height="11" fill="#161b22" rx="2" />
    <rect x="383" y="6" width="11" height="11" fill="#161b22" rx="2" />
    <rect x="383" y="19" width="11" height="11" fill="#161b22" rx="2" />
    <rect x="383" y="32" width="11" height="11" fill="#161b22" rx="2" />
    <rect x="383" y="45" width="11" height="11" fill="#161b22" rx="2" />
    <rect x="383" y="58" width="11" height="11" fill="#161b22" rx="2" />
    <rect x="383" y="71" width="11" height="11" fill="#161b22" rx="2" />
    <rect x="383" y="84" width="11" height="11" fill="#161b22" rx="2" />
    <rect x="396" y="6" width="11" height="11" fill="#161b22" rx="2" />
    <rect x="396" y="19" width="11" height="11" fill="#161b22" rx="2" />
    <rect x="396" y="32" width="11" height="11" fill="#161b22" rx="2" />
    <rect x="396" y="45" width="11" height="11" fill="#161b22" rx="2" />
    <rect x="396" y="58" width="11" height="11" fill="#161b22" rx="2" />
    <rect x="396" y="71" width="11" height="11" fill="#161b22" rx="2" />
    <rect x="396" y="84" width="11" height="11" fill="#161b22" rx="2" />
    <rect x="409" y="6" width="11" height="11" fill="#161b22" rx="2" />
    <rect x="409" y="19" width="11" height="11" fill="#161b22" rx="2" />
    <rect x="409" y="32" width="11" height="11" fill="#161b22" rx="2" />
    <rect x="409" y="45" width="11" height="11" fill="#161b22" rx="2" />
    <rect x="409" y="58" width="11" height="11" fill="#161b22" rx="2" />
    <rect x="409" y="71" width="11" height="11" fill="#161b22" rx="2" />
    <rect x="409" y="84" width="11" height="11" fill="#161b22" rx="2" />
    <rect x="422" y="6" width="11" height="11" fill="#161b22" rx="2" />
    <rect x="422" y="19" width="11" height="11" fill="#161b22" rx="2" />
    <rect x="422" y="32" width="11" height="11" fill="#161b22" rx="2" />
    <rect x="422" y="45" width="11" height="11" fill="#161b22" rx="2" />
    <rect x="422" y="58" width="11" height="11" fill="#161b22" rx="2" />
    <rect x="422" y="71" width="11" height="11" fill="#161b22" rx="2" />
    <rect x="422" y="84" width="11" height="11" fill="#161b22" rx="2" />
    <rect x="435" y="6" width="11" height="11" fill="#161b22" rx="2" />
    <rect x="435" y="19" width="11" height="11" fill="#161b22" rx="2" />
    <rect x="435" y="32" width="11" height="11" fill="#161b22" rx="2" />
    <rect x="435" y="45" width="11" height="11" fill="#161b22" rx="2" />
    <rect x="435" y="58" width="11" height="11" fill="#161b22" rx="2" />
    <rect x="435" y="71" width="11" height="11" fill="#161b22" rx="2" />
    <rect x="435" y="84" width="11" height="11" fill="#161b22" rx="2" />
    <rect x="448" y="6" width="11" height="11" fill="#161b22" rx="2" />
    <rect x="448" y="19" width="11" height="11" fill="#161b22" rx="2" />
    <rect x="448" y="32" width="11" height="11" fill="#161b22" rx="2" />
    <rect x="448" y="45" width="11" height="11" fill="#161b22" rx="2" />
    <rect x="448" y="58" width="11" height="11" fill="#161b22" rx="2" />
    <rect x="448" y="71" width="11" height="11" fill="#161b22" rx="2" />
    <rect x="448" y="84" width="11" height="11" fill="#161b22" rx="2" />
    <rect x="461" y="6" width="11" height="11" fill="#161b22" rx="2" />
    <rect x="461" y="19" width="11" height="11" fill="#161b22" rx="2" />
    <rect x="461" y="32" width="11" height="11" fill="#161b22" rx="2" />
    <rect x="461" y="45" width="11" height="11" fill="#161b22" rx="2" />
    <rect x="461" y="58" width="11" height="11" fill="#161b22" rx="2" />
    <rect x="461" y="71" width="11" height="11" fill="#161b22" rx="2" />
    <rect x="461" y="84" width="11" height="11" fill="#161b22" rx="2" />
    <rect x="474" y="6" width="11" height="11" fill="#161b22" rx="2" />
    <rect x="474" y="19" width="11" height="11" fill="#161b22" rx="2" />
    <rect x="474" y="32" width="11" height="11" fill="#161b22" rx="2" />
    <rect x="474" y="45" width="11" height="11" fill="#161b22" rx="2" />
    <rect x="474" y="58" width="11" height="11" fill="#161b22" rx="2" />
    <rect x="474" y="71" width="11" height="11" fill="#161b22" rx="2" />
    <rect x="474" y="84" width="11" height="11" fill="#161b22" rx="2" />
    <rect x="487" y="6" width="11" height="11" fill="#161b22" rx="2" />
    <rect x="487" y="19" width="11" height="11" fill="#161b22" rx="2" />
    <rect x="487" y="32" width="11" height="11" fill="#161b22" rx="2" />
    <rect x="487" y="45" width="11" height="11" fill="#161b22" rx="2" />
    <rect x="487" y="58" width="11" height="11" fill="#161b22" rx="2" />
    <rect x="487" y="71" width="11" height="11" fill="#161b22" rx="2" />
    <rect x="487" y="84" width="11" height="11" fill="#161b22" rx="2" />
    <rect x="500" y="6" width="11" height="11" fill="#161b22" rx="2" />
    <rect x="500" y="19" width="11" height="11" fill="#161b22" rx="2" />
    <rect x="500" y="32" width="11" height="11" fill="#161b22" rx="2" />
    <rect x="500" y="45" width="11" height="11" fill="#161b22" rx="2" />
    <rect x="500" y="58" width="11" height="11" fill="#161b22" rx="2" />
    <rect x="500" y="71" width="11" height="11" fill="#161b22" rx="2" />
    <rect x="500" y="84" width="11" height="11" fill="#161b22" rx="2" />
    <rect x="513" y="6" width="11" height="11" fill="#161b22" rx="2" />
    <rect x="513" y="19" width="11" height="11" fill="#161b22" rx="2" />
    <rect x="513" y="32" width="11" height="11" fill="#161b22" rx="2" />
    <rect x="513" y="45" width="11" height="11" fill="#161b22" rx="2" />
    <rect x="513" y="58" width="11" height="11" fill="#161b22" rx="2" />
    <rect x="513" y="71" width="11" height="11" fill="#161b22" rx="2" />
    <rect x="513" y="84" width="11" height="11" fill="#161b22" rx="2" />
    <rect x="526" y="6" width="11" height="11" fill="#161b22" rx="2" />
    <rect x="526" y="19" width="11" height="11" fill="#161b22" rx="2" />
    <rect x="526" y="32" width="11" height="11" fill="#161b22" rx="2" />
    <rect x="526" y="45" width="11" height="11" fill="#161b22" rx="2" />
    <rect x="526" y="58" width="11" height="11" fill="#161b22" rx="2" />
    <rect x="526" y="71" width="11" height="11" fill="#161b22" rx="2" />
    <rect x="526" y="84" width="11" height="11" fill="#161b22" rx="2" />
    <rect x="539" y="6" width="11" height="11" fill="#161b22" rx="2" />
    <rect x="539" y="19" width="11" height="11" fill="#161b22" rx="2" />
    <rect x="539" y="32" width="11" height="11" fill="#161b22" rx="2" />
    <rect x="539" y="45" width="11" height="11" fill="#161b22" rx="2" />
    <rect x="539" y="58" width="11" height="11" fill="#161b22" rx="2" />
    <rect x="539" y="71" width="11" height="11" fill="#161b22" rx="2" />
    <rect x="539" y="84" width="11" height="11" fill="#161b22" rx="2" />
    <rect x="552" y="6" width="11" height="11" fill="#161b22" rx="2" />
    <rect x="552" y="19" width="11" height="11" fill="#161b22" rx="2" />
    <rect x="552" y="32" width="11" height="11" fill="#161b22" rx="2" />
    <rect x="552" y="45" width="11" height="11" fill="#161b22" rx="2" />
    <rect x="552" y="58" width="11" height="11" fill="#161b22" rx="2" />
    <rect x="552" y="71" width="11" height="11" fill="#161b22" rx="2" />
    <rect x="552" y="84" width="11" height="11" fill="#161b22" rx="2" />
    <rect x="565" y="6" width="11" height="11" fill="#161b22" rx="2" />
    <rect x="565" y="19" width="11" height="11" fill="#161b22" rx="2" />
    <rect x="565" y="32" width="11" height="11" fill="#161b22" rx="2" />
    <rect x="565" y="45" width="11" height="11" fill="#161b22" rx="2" />
    <rect x="565" y="58" width="11" height="11" fill="#161b22" rx="2" />
    <rect x="565" y="71" width="11" height="11" fill="#161b22" rx="2" />
    <rect x="565" y="84" width="11" height="11" fill="#161b22" rx="2" />
    <rect x="578" y="6" width="11" height="11" fill="#161b22" rx="2" />
    <rect x="578" y="19" width="11" height="11" fill="#161b22" rx="2" />
    <rect x="578" y="32" width="11" height="11" fill="#161b22" rx="2" />
    <rect x="578" y="45" width="11" height="11" fill="#161b22" rx="2" />
    <rect x="578" y="58" width="11" height="11" fill="#161b22" rx="2" />
    <rect x="578" y="71" width="11" height="11" fill="#161b22" rx="2" />
    <rect x="578" y="84" width="11" height="11" fill="#161b22" rx="2" />
    <rect x="591" y="6" width="11" height="11" fill="#161b22" rx="2" />
    <rect x="591" y="19" width="11" height="11" fill="#161b22" rx="2" />
    <rect x="591" y="32" width="11" height="11" fill="#161b22" rx="2" />
    <rect x="591" y="45" width="11" height="11" fill="#161b22" rx="2" />
    <rect x="591" y="58" width="11" height="11" fill="#161b22" rx="2" />
    <rect x="591" y="71" width="11" height="11" fill="#161b22" rx="2" />
    <rect x="591" y="84" width="11" height="11" fill="#161b22" rx="2" />
    <rect x="604" y="6" width="11" height="11" fill="#161b22" rx="2" />
    <rect x="604" y="19" width="11" height="11" fill="#161b22" rx="2" />
    <rect x="604" y="32" width="11" height="11" fill="#161b22" rx="2" />
    <rect x="604" y="45" width="11" height="11" fill="#161b22" rx="2" />
    <rect x="604" y="58" width="11" height="11" fill="#161b22" rx="2" />
    <rect x="604" y="71" width="11" height="11" fill="#161b22" rx="2" />
    <rect x="604" y="84" width="11" height="11" fill="#161b22" rx="2" />
    <rect x="617" y="6" width="11" height="11" fill="#161b22" rx="2" />
    <rect x="617" y="19" width="11" height="11" fill="#161b22" rx="2" />
    <rect x="617" y="32" width="11" height="11" fill="#161b22" rx="2" />
    <rect x="617" y="45" width="11" height="11" fill="#161b22" rx="2" />
    <rect x="617" y="58" width="11" height="11" fill="#161b22" rx="2" />
    <rect x="617" y="71" width="11" height="11" fill="#161b22" rx="2" />
    <rect x="617" y="84" width="11" height="11" fill="#161b22" rx="2" />
    <rect x="630" y="6" width="11" height="11" fill="#161b22" rx="2" />
    <rect x="630" y="19" width="11" height="11" fill="#161b22" rx="2" />
    <rect x="630" y="32" width="11" height="11" fill="#161b22" rx="2" />
    <rect x="630" y="45" width="11" height="11" fill="#161b22" rx="2" />
    <rect x="630" y="58" width="11" height="11" fill="#161b22" rx="2" />
    <rect x="630" y="71" width="11" height="11" fill="#006d32" rx="2" />
    <rect x="630" y="84" width="11" height="11" fill="#39d353" rx="2" />
    <rect x="643" y="6" width="11" height="11" fill="#39d353" rx="2" />
    <rect x="643" y="19" width="11" height="11" fill="#26a641" rx="2" />
    <rect x="643" y="32" width="11" height="11" fill="#006d32" rx="2" />
    <rect x="643" y="45" width="11" height="11" fill="#161b22" rx="2" />
    <rect x="643" y="58" width="11" height="11" fill="#161b22" rx="2" />
    <rect x="643" y="71" width="11" height="11" fill="#161b22" rx="2" />
    <rect x="643" y="84" width="11" height="11" fill="#161b22" rx="2" />
    <rect x="656" y="6" width="11" height="11" fill="#0e4429" rx="2" />
    <rect x="656" y="19" width="11" height="11" fill="#161b22" rx="2" />
    <rect x="656" y="32" width="11" height="11" fill="#161b22" rx="2" />
    <rect x="656" y="45" width="11" height="11" fill="#161b22" rx="2" />
    <rect x="656" y="58" width="11" height="11" fill="#161b22" rx="2" />
    <rect x="656" y="71" width="11" height="11" fill="#161b22" rx="2" />
    <rect x="656" y="84" width="11" height="11" fill="#26a641" rx="2" />
    <rect x="669" y="6" width="11" height="11" fill="#39d353" rx="2" />
    <rect x="669" y="19" width="11" height="11" fill="#26a641" rx="2" />
    <rect x="669" y="32" width="11" height="11" fill="#006d32" rx="2" />
    <rect x="669" y="45" width="11" height="11" fill="#161b22" rx="2" />
    <rect x="669" y="58" width="11" height="11" fill="#161b22" rx="2" />
    <rect x="669" y="71" width="11" height="11" fill="#161b22" rx="2" />
    <rect x="669" y="84" width="11" height="11" fill="#0e4429" rx="2" />
    <rect x="682" y="6" width="11" height="11" fill="#161b22" rx="2" />
    <rect x="682" y="19" width="11" height="11" fill="#161b22" rx="2" />
    <rect x="682" y="32" width="11" height="11" fill="#161b22" rx="2" />
    <rect x="682" y="45" width="11" height="11" fill="#161b22" rx="2" />
    <rect x="682" y="58" width="11" height="11" fill="#161b22" rx="2" />
    <rect x="682" y="71" width="11" height="11" fill="#161b22" rx="2" />
    <rect x="682" y="84" width="11" height="11" fill="#006d32" rx="2" />
  </g>
</svg>